{"title":"Days and Nights 2014 HDRip XviD AC3-GiANGi torrent","uid":11108049,"size":1298615165,"categoryP":"video","categoryS":"other","magnet":"?xt=urn:btih:015bd7b7da901e2841d5aaa4df5a66867209ea32&amp;dn=Days+and+Nights+2014+HDRip+XviD+AC3-GiANGi+torrent&amp;tr=udp%3A%2F%2Ftracker.openbittorrent.com%3A80&amp;tr=udp%3A%2F%2Fopen.demonii.com%3A1337&amp;tr=udp%3A%2F%2Ftracker.coppersurfer.tk%3A6969&amp;tr=udp%3A%2F%2Fexodus.desync.com%3A6969","seeders":0,"leechers":1,"uploader":"jacks66","files":-1,"time":1411753089,"description":"Days and Nights 2014 HDRip XviD AC3-GiANGi torrent\n\n\n\n====================================\nDays and Nights 2014 HDRip XviD AC3-GiANGi\n====================================\n\nReckless desire wreaks havoc over Memorial Day weekend as a family confronts the volatile and fragile nature of love. Inspired by Anton Chekhov's &quot;The Seagull,&quot; set in rural New England in 1984.   \n\n====================================\n\nGenre.....: Comedy | Drama\n\nActors....: Katie Holmes, William Hurt, Allison Janney\n\nLanguage..: English \n\nSubs......: N/A\n\nSource....: Days.and.Nights.2014.720p.HDRiP.X264.AC3.5.1-PLAYNOW [Thanks]\n\nHDRip...: *~giangoulas~*\n\nimdb......: http://www.imdb.com/title/tt2359381/\n\n=====================================\n\n====================================\n\n     Format : AVI\n     Format/Info : Audio Video Interleave\n     File size : 1.21 GiB\n     Duration : 1h 31mn\n     Overall bit rate : 1 893 Kbps\n     Writing application : VirtualDubMod 1.5.10.3 | www.virtualdub-fr.org || (build 2550/release)\n     Writing library : VirtualDubMod build 2550/release\n  Video #0\n     ID : 0\n     Format : MPEG-4 Visual\n     Format profile : Advanced Simple@L5\n     Format settings, BVOP : 1\n     Format settings, QPel : No\n     Format settings, GMC : No warppoints\n     Format settings, Matrix : Default (H.263)\n     Codec ID : XVID\n     Codec ID/Hint : XviD\n     Duration : 1h 31mn\n     Bit rate : 1 500 Kbps\n     Width : 720 pixels\n     Height : 384 pixels\n     Display aspect ratio : 1.85:1\n     Frame rate : 23.976 fps\n     Color space : YUV\n     Chroma subsampling : 4:2:0\n     Bit depth : 8 bits\n     Scan type : Progressive\n     Compression mode : Lossy\n     Bits/(Pixel*Frame) : 0.226\n     Stream size : 980 MiB (79%)\n     Writing library : XviD 73\n  Audio #1\n     ID : 1\n     Format : AC-3\n     Format/Info : Audio Coding 3\n     Mode extension : CM (complete main)\n     Format settings, Endianness : Big\n     Codec ID : 2000\n     Duration : 1h 31mn\n     Bit rate mode : Constant\n     Bit rate : 384 Kbps\n     Channel(s) : 6 channels\n     Channel positions : Front: L C R, Side: L R, LFE\n     Sampling rate : 48.0 KHz\n     Bit depth : 16 bits\n     Compression mode : Lossy\n     Stream size : 251 MiB (20%)\n     Alignment : Split accross interleaves\n     Interleave, duration : 42 ms (1.00 video frame)\n     Interleave, preload duration : 500 ms\n\n=====================================\n\n\nScreens:\n\n &lt;a href=&quot;\nhttp://imgsleek.com/img-542587518f27f.html&quot; rel=&quot;nofollow&quot; target=&quot;_NEW&quot;&gt;\nhttp://imgsleek.com/img-542587518f27f.html&lt;/a&gt;\n &lt;a href=&quot;\nhttp://imgsleek.com/img-542587519650a.html&quot; rel=&quot;nofollow&quot; target=&quot;_NEW&quot;&gt;\nhttp://imgsleek.com/img-542587519650a.html&lt;/a&gt;\n &lt;a href=&quot;\nhttp://imgsleek.com/img-542587519c904.html&quot; rel=&quot;nofollow&quot; target=&quot;_NEW&quot;&gt;\nhttp://imgsleek.com/img-542587519c904.html&lt;/a&gt;\n &lt;a href=&quot;\nhttp://imgsleek.com/img-54258751a34b6.html&quot; rel=&quot;nofollow&quot; target=&quot;_NEW&quot;&gt;\nhttp://imgsleek.com/img-54258751a34b6.html&lt;/a&gt;\n &lt;a href=&quot;\nhttp://imgsleek.com/img-54258751aa53f.html&quot; rel=&quot;nofollow&quot; target=&quot;_NEW&quot;&gt;\nhttp://imgsleek.com/img-54258751aa53f.html&lt;/a&gt;\n &lt;a href=&quot;\nhttp://imgsleek.com/img-54258751b1565.html&quot; rel=&quot;nofollow&quot; target=&quot;_NEW&quot;&gt;\nhttp://imgsleek.com/img-54258751b1565.html&lt;/a&gt;\n","torrent":{"xt":"urn:btih:015bd7b7da901e2841d5aaa4df5a66867209ea32","amp;dn":"Days+and+Nights+2014+HDRip+XviD+AC3-GiANGi+torrent","amp;tr":["udp%3A%2F%2Ftracker.openbittorrent.com%3A80","udp%3A%2F%2Fopen.demonii.com%3A1337","udp%3A%2F%2Ftracker.coppersurfer.tk%3A6969","udp%3A%2F%2Fexodus.desync.com%3A6969"],"infoHash":"015bd7b7da901e2841d5aaa4df5a66867209ea32","infoHashBuffer":{"type":"Buffer","data":[1,91,215,183,218,144,30,40,65,213,170,164,223,90,102,134,114,9,234,50]},"announce":[],"urlList":[]}}